# xmcd
#
# Track frame offsets: 
#        150
#        17646
#        34121
#        51033
#        69663
#        87100
#        106038
#        123924
#        140280
#        156250
#        169900
#        188209
#        206183
#
# Disc length: 3139 seconds
#
# Revision: 0
# Processed by: cddbd v1.5.2PL0 Copyright (c) Steve Scherf et al.
# Submitted via: ExactAudioCopy v0.99pb4
#
DISCID=ac0c410d
DTITLE=Third Day - Christmas Offerings
DYEAR=2006
DGENRE=Contemporary Christian
TTITLE0=O Come All Ye Faithful
TTITLE1=Do You Hear What I Hear?
TTITLE2=Born in Bethlehem
TTITLE3=O Holy Night
TTITLE4=Angels We Have Heard on High
TTITLE5=Silent Night
TTITLE6=Jesus, Light of The World
TTITLE7=Joy To The World
TTITLE8=What Child is This?
TTITLE9=The First Noel
TTITLE10=Christmas Like a Child
TTITLE11=Away in a Manger
TTITLE12=Merry Christmas
EXTD=
EXTT0=
EXTT1=
EXTT2=
EXTT3=
EXTT4=
EXTT5=
EXTT6=
EXTT7=
EXTT8=
EXTT9=
EXTT10=
EXTT11=
EXTT12=
PLAYORDER=
